<?xml version="1.0" standalone="no"?><!DOCTYPE svg PUBLIC "-//W3C//DTD SVG 1.1//EN" "http://www.w3.org/Graphics/SVG/1.1/DTD/svg11.dtd"><svg t="1734318089005" class="icon" viewBox="0 0 1024 1024" version="1.1" xmlns="http://www.w3.org/2000/svg" p-id="4201" xmlns:xlink="http://www.w3.org/1999/xlink" width="200" height="200"><path d="M921.6 64c20.48 0 38.4 17.92 38.4 38.4v819.2c0 20.48-17.92 38.4-38.4 38.4H102.4c-20.48 0-38.4-17.92-38.4-38.4V102.4c0-20.48 17.92-38.4 38.4-38.4h819.2z m-38.4 76.8H140.8v742.4h742.4V140.8z m-640 478.72c17.92 0 33.28 15.36 33.28 33.28v94.72H371.2c17.92 0 33.28 15.36 33.28 33.28s-15.36 33.28-33.28 33.28h-128a33.92 33.92 0 0 1-33.28-33.28v-128c0-17.92 15.36-33.28 33.28-33.28z m537.6 0c17.92 0 33.28 15.36 33.28 33.28v128c0 17.92-15.36 33.28-33.28 33.28h-128a33.92 33.92 0 0 1-33.28-33.28c0-17.92 15.36-33.28 33.28-33.28h94.72V652.8c0-17.92 15.36-33.28 33.28-33.28z m0-409.6c17.92 0 33.28 15.36 33.28 33.28v128c0 17.92-15.36 33.28-33.28 33.28a33.92 33.92 0 0 1-33.28-33.28V276.48H652.8a33.92 33.92 0 0 1-33.28-33.28c0-17.92 15.36-33.28 33.28-33.28h128z m-409.6 0c17.92 0 33.28 15.36 33.28 33.28s-15.36 33.28-33.28 33.28H276.48V371.2c0 17.92-15.36 33.28-33.28 33.28a33.92 33.92 0 0 1-33.28-33.28v-128c0-17.92 15.36-33.28 33.28-33.28h128z" fill="#595959" p-id="4202"></path></svg>